<svg xmlns="http://www.w3.org/2000/svg" viewBox="0 0 3000 2000"><g data-name="Layer 1"><path fill="#e9e9fb" d="M2303.858 926.492c-134.09-338.33-281.306-321.49-673.254-240.727-377.204 42.572-520.827-96.064-722.69 23.372-401.888 160.666-262.767 720.308 10.361 938.31h1333.83c35.574-75.526 160.101-445.564 51.753-720.955Z"/><path fill="#c7c8ed" d="M2488.461 1396.411c-13.204 26.199-71.816 24.474-109.102 12.327-55.141-16.893-140.612-61.59-141.481-157.434.306-2.956 4.503-39.349 22.991-44.546 22.993-6.452 51.973 39.914 61.242 33.89 4.598-2.989-1.282-15.177-3.131-31.76-4.157-37.102 12.9-86.492 44.547-95.948 14.966-4.479 33.625-.124 45.797 11.931 19.598 19.444 5.573 58.71 8.956 59.381 4.8.918 9.447-79.52 51.434-97.409 14.796-6.294 35.478-5.39 44.308 5.03 13.023 15.305-4.855 44.732 3.346 49.752 8.666 5.274 27.177-28.237 67.327-39.495 10.287-2.888 34.156-9.582 51.191 3.568 27.848 21.499 17.446 66.37-8.781 77.524-24.857 14.097-42.73-.943-88.396 7.941-15.964 3.11-33.224 8.702-33.068 14.202.121 4.168 10.004 4.39 20.92 13.604 4.368 3.863 15.599 13.02 16.902 28.843 1.392 7.856-4.981 30.003-23.206 26.549-25.957-1.501-58.822 4.645-59.348 8.979-.614 4.952 41.213 7.017 44.492 22.999 2.731 13.289-22.676 28.782-25.917 30.722-27.45 16.416-57.95 13.531-57.891 15.861.043 2.143 24.717-1.776 45.744 11.944 9.827 6.392 23.95 19.939 21.124 31.545ZM719.875 1314.034c6.14 24.271-8.332 42.566-29.477 23.078-14.904-18.145-6.812-42.303-8.056-63.51-2.765-72.72-75.157-37.692-117.79-60.788 11.241 21.921 36.483 34.943 49.432 55.7 16.212 21.165 1.464 54.718-26.146 40.1-12.603-8.478-11.492-25.242-16.32-38.665-16.678-41.699-72.679-43.983-110.872-36.95 26.026 20.505 44.634 49.366 51.231 79.354-16.333.502-27.656-17.083-39.79-28.912-33.323-31.943-84.352-27.768-124.485-14.076 6.575 41.88 26.665 88.999 70.45 103.593 16.118 5.226 36.933 7.088 44.095 21.776-29.606 8.133-63.791 5.076-94.082-8.364 11.55 37.051 39.695 85.573 84.348 80.891 14.125-1.982 28.44-10.774 41.818-3.572 25.762 17.617 3.006 46.31-23.307 41.815-24.396-1.785-47.682-18.056-72.313-17.79 31.549 17.933 33.594 67.013 67.398 79.767 29.197 10.715 52.215-12.333 76.775-23.295 13.657-7.695 39.678-3.952 40.995 14.481-6.5 28.455-76.63 16.805-86.356 102.063 49.896-30.824 125.641 13.314 176.945-12.9 48.805-25.119 76.907-103.667 46.682-148.096 56.348 5.084 113.597-62.963 113.646-117.507-.702-57.602-75.053-104.076-71.017-162.582-31.353 19.77-48.502 56.683-43.804 94.389Zm-90.795 299.872c1.27 22.557-48.848 24.211-49.009 1.602-1.32-22.526 48.806-24.25 49.009-1.602Zm-175.41-186.274c.788 13.194-28.561 14.252-28.685.988-.786-13.193 28.576-14.21 28.685-.988Zm200.24-85.912c5.447 15.305-11.681 21.204-16.81 5.785-5.488-15.258 11.694-21.16 16.81-5.785Z"/><path fill="#a1a2d4" d="M782.357 1091.723c-17.16 1.193-35.015.031-50.675 8.559-19.454 8.594-41.488 33.489-27.418 54.81a158.588 158.588 0 0 0-10.182 27.237 909.781 909.781 0 0 1-28.255-44.582 155.886 155.886 0 0 1 10.29-28.77c31.838 15.8 34.537-34.202 52.111-48.714a56.473 56.473 0 0 1 23.84-13.87c1.716-.493 1.59-3.48-.371-3.275-17.162 1.193-35.017.031-50.675 8.56-19.459 8.588-41.486 33.49-27.42 54.808a158.595 158.595 0 0 0-10.165 27.18 898.929 898.929 0 0 1-27.725-50.944 156.133 156.133 0 0 1 10.22-28.504c31.84 15.798 34.536-34.202 52.111-48.715a56.491 56.491 0 0 1 23.84-13.869c1.717-.494 1.59-3.482-.372-3.276-17.161 1.194-35.014.031-50.675 8.56-19.457 8.589-41.485 33.49-27.419 54.808a158.653 158.653 0 0 0-9.97 26.433 834.978 834.978 0 0 1-20.107-43.567 156.034 156.034 0 0 1 10.442-29.358c31.84 15.8 34.536-34.202 52.112-48.714a56.464 56.464 0 0 1 23.838-13.868c1.718-.494 1.592-3.484-.37-3.277-17.16 1.194-35.015.03-50.674 8.56-19.46 8.588-41.485 33.49-27.419 54.808a158.516 158.516 0 0 0-10.065 26.797c-8.205-19.523-15-37.7-20.587-54.09 3.266-10.108 6.124-20.643 10.96-30.23 31.839 15.796 34.536-34.202 52.111-48.715a56.49 56.49 0 0 1 23.84-13.87c1.717-.493 1.59-3.481-.37-3.275-17.162 1.192-35.016.031-50.674 8.558-19.462 8.592-41.486 33.492-27.421 54.81a158.505 158.505 0 0 0-10.23 27.422c-11.035-34.491-21.637-54.012-4.16-83.012 31.839 15.734 34.509-34.222 52.088-48.733a56.497 56.497 0 0 1 23.838-13.869c1.718-.494 1.59-3.482-.37-3.277-17.16 1.194-35.015.032-50.673 8.56-19.47 8.593-41.507 33.519-27.403 54.835a166.944 166.944 0 0 0-10.229 26.634c-7.687-30.743-3.708-31.642-10.224-56.196 22.229-25.549-8.386-56.526-33.397-65.034-3.376-1.437-37.888-17.066-32.835-8.417 41.582 15.2 22.993 87.343 63.299 75.366 6.187 25.76 3.576 34.662 13.338 68.808a160.737 160.737 0 0 0-21.756-17.434c1.86-15.206-12.23-25.56-24.945-30.542-25.995-9.64-52.26 2.401-74.709 15.192-1.747.786-.562 3.514 1.232 3.06 42.36-15.55 74.347 51.139 97.512 15.689a169.307 169.307 0 0 1 24.332 20.272c4.749 17.415 11.477 39.315 20.767 64.426a150.527 150.527 0 0 0-24.518-20.017c.96-22.253-25.548-35.078-45.134-35.403-19.05-2.237-35.935 6.87-52.904 13.907a1.664 1.664 0 0 0 .818 3.225 56.924 56.924 0 0 1 45.772 12.606c11.982 12.618 39.495 33.112 50.737 9.191 31.409 16.451 37.079 50.196 51.814 80.246a129.206 129.206 0 0 0-26.219-15.739c-13.175-45.038-71.187-22.589-100.179-6.64a1.67 1.67 0 0 0 1.233 3.06 57.168 57.168 0 0 1 47.022 6.058c13.746 11.184 45.547 28.09 51.996 1.193 28.785 9.995 36.665 33.655 49.515 58.637a162.428 162.428 0 0 0-33.306-12.024c-24.214-40.37-74.734-3.742-98.543 19.323a1.674 1.674 0 0 0 1.997 2.636 57.206 57.206 0 0 1 49.431-5.526c15.822 6.952 48.572 13.197 48.104-12.766 12.137 2.874 23.66 7.885 34.906 13.154a912.692 912.692 0 0 0 23.977 41.227 134.462 134.462 0 0 0-27.52-9.078c-22.81-42.21-75.25-5.102-98.948 18.181a1.673 1.673 0 0 0 1.996 2.635 57.218 57.218 0 0 1 49.433-5.527c15.67 6.66 47.201 13.4 48.17-11.751a126.445 126.445 0 0 1 30.145 10.824c9.56 15.264 20.043 30.976 30.758 45.939a162.454 162.454 0 0 0-25.997-9.78c-10.774-32.133-53.168-21.734-73.482-4.808-2.933 2.102-34.215 23.636-23.978 23.586 33.627-27.728 87.254 25.163 97.602-15.292 10.323 2.82 20.148 7.238 29.796 11.802 35.592 46.643 79.341 103.717 134.842 145.895-57.123-56.539-111.583-113.83-147.299-169.43a156.17 156.17 0 0 1 10.202-28.44c37.454 18.946 33.142-56.137 75.952-62.58 1.717-.496 1.589-3.484-.372-3.279Zm-106-13.133c12.001-23.3 40.109-32.362 64.897-31.542-31.768 8.687-32.97 75.972-63.658 58.846a156.133 156.133 0 0 1 25.363-36.613c.376-12.853-26.59 30.09-27.698 33.854-4.793-7.555-2.856-16.867 1.095-24.545Zm-30.186-54.759c12.002-23.3 40.108-32.364 64.898-31.543-31.77 8.687-32.969 75.972-63.659 58.846a156.058 156.058 0 0 1 25.365-36.612c.377-12.857-26.592 30.09-27.699 33.854-4.794-7.556-2.854-16.867 1.095-24.545Zm-22.15-48.983c12.003-23.302 40.11-32.363 64.898-31.543-31.768 8.685-32.969 75.972-63.657 58.846a156.136 156.136 0 0 1 25.365-36.614c.375-12.853-26.592 30.09-27.7 33.853-4.793-7.555-2.856-16.865 1.094-24.542Zm-22.203-60.017c12-23.298 40.107-32.362 64.896-31.542-31.769 8.687-32.969 75.973-63.659 58.847a156.155 156.155 0 0 1 25.367-36.613c.376-12.856-26.592 30.09-27.701 33.853-4.793-7.553-2.854-16.866 1.097-24.545Zm-16.93-58.1c12.003-23.299 40.11-32.362 64.899-31.541-31.786 8.705-32.92 75.862-63.617 58.878a157.947 157.947 0 0 1 25.323-36.645c.38-12.875-26.481 30.06-27.67 33.899-4.83-7.565-2.891-16.898 1.066-24.59Zm-51.886 62.066c-25.613-3.888-42.598-32.875-71.368-27.603 24.062-17.342 79.43-22.427 85.511 15.092-2.767-2.585-47.77-26.06-41.2-15.228a158.267 158.267 0 0 1 40.6 18.781c-1.911 5.588-7.6 8.82-13.543 8.958Zm11.517-65.274c-20.686-16.603-10.936-51.77-36.882-68.05 27.051 8.032 73.975 31.976 53.021 65.92-.463-3.862-18.55-50.4-21.052-38.39a156.825 156.825 0 0 1 18.282 40.752c-4.05 2.42-9.27 2.013-13.37-.232Zm7.592 134.142c-25.636-5.353-40.09-36.597-69.507-33.51 25.798-15.196 77.27-15.96 84.19 20.191-3.357-2.25-45.733-27.404-39.75-16.565a217.003 217.003 0 0 1 39.368 20.284c-1.529 6.404-8.003 9.78-14.301 9.6Zm25.123 71.752c-24.776-3.302-42.468-29.5-69.828-24.154 25.255-12.281 70.468-27.43 83.854 7.6-3.647-1.521-48.828-19.23-41.624-9.814 14.072 3.41 28.514 7.632 42.04 13.62.266 7.682-7.363 12.657-14.442 12.748Zm23.174 53.178c-25.267 6.47-50.473-17.416-76.253-4.25 21.205-18.493 60.856-44.824 82.978-14.487-3.744-.983-46.104-8.025-37.802-.277a159.433 159.433 0 0 1 39.19 3.971c2.052 6.284-2.49 12.497-8.113 15.043Zm31.948 47.826c-25.268 6.47-50.473-17.416-76.254-4.25 21.123-18.695 62.779-45.59 83.527-13.221-4.234-.94-51.77-7.676-43.32.096a199.09 199.09 0 0 1 44.463 3.488c1.163 6.013-3.15 11.46-8.416 13.887Zm35.05 48.483c-25.268 6.47-50.472-17.416-76.254-4.25 20.99-19.041 65.626-46.572 84.208-11.392-4.144-1.566-52.215-10.117-44-1.733a159.475 159.475 0 0 1 44.611 5.306c.024 5.308-3.805 9.869-8.565 12.07Zm80.5-91.822c-8.787 14.307-16.33 50.687-39.649 37.416a156.14 156.14 0 0 1 25.365-36.613c.377-12.852-26.591 30.09-27.699 33.856-13.323-35.86 36.151-58.765 65.992-56.088a60.234 60.234 0 0 0-24.01 21.429ZM2467.27 1630.424c30.117-15.861-31.63-53.916-48.875-37.229-11.536-9.782-22.648-21.035-30.103-34.303 13.902-5.356 27.132-12.263 40.008-19.65 12.638 17.083 34.748 25.25 53.665 33.63-4.574 22.176 45.304 30.02 58.885 17.837 23.513-24.04-44.067-40.562-56.742-21.758-18.176-8.03-39.565-15.77-51.96-31.914 13.862-8.113 27.415-16.799 41.145-25.162 12.382 10.48 28.08 16.303 44.095 18.132 3.893 18.436 58.044 27.84 63.942 4.482 2.821-20.998-57.149-32.604-64.004-9.12-14.295-2.048-28-6.461-40.12-15.831 18.8-11.384 38.329-21.924 59.196-28.943 7.927 19.325 68.27 2.585 61.74-18.48-4.672-21.533-65.384-6.478-62.847 14.228-20.295 6.842-39.444 16.945-58.008 27.956 3.887-18.694 11.875-36.537 19.855-53.821 21.297 2.636 46.1-47.122 28.406-57.494-22.331-8.987-51.104 41.27-32.64 56.08-8.072 18.607-17.907 37.733-20.266 58.012-14.04 8.476-27.797 17.344-41.945 25.634a186.327 186.327 0 0 1 5.7-58.639c22.32 1.045 39.588-53.679 20.34-61.213-23.181-4.996-43.266 46.27-24.584 59.945-4.663 19.88-8.536 41.77-5.096 62.003a279.64 279.64 0 0 1-41.854 20.464c-3.554-17.734-5.22-35.859-2.922-53.939 20.93-3.97 30.076-58.73 10.138-63.412-23.812-1.798-37.012 53.931-14.564 63.382-1.73 18.256-1.782 37.816 3.827 55.253a255.426 255.426 0 0 1-40.837 11.296c-2.225-11.895-3.836-23.989-3.315-36.121 20.157-4.775 29.074-58.597 9.31-63.157-23.891-2.059-37.548 55.6-13.706 63.481-.238 12.227.622 24.653 3.634 36.592a561.705 561.705 0 0 1-60.684 7.614c-14.128 10.81 58.373-2.983 63.227-3.526a142.998 142.998 0 0 0 10.735 18.68c-13.265 21.582 37.913 54.85 53.617 36.363 10.964-16.946-32.255-48.915-50.07-39.04a136.275 136.275 0 0 1-9.777-16.891 283.217 283.217 0 0 0 40.625-11.502c6.714 14.378 19.447 26.108 31.287 36.415-6.506 20.799 34.843 40.245 51.542 33.666Zm21.14-61.366c11.088-12.008 68.198-1.47 50.53 19.184-11.099 11.171-57.67 2.783-54.053-14.24 3.295.927 34.777 13.48 26.468 3.266a204.448 204.448 0 0 1-24.14-7.135 13.072 13.072 0 0 1 1.195-1.076Zm35.56-48.314c11.487-10.533 54.693-4.07 54.262 13.36-6.1 19.043-51.832 10.839-57.366-3.615 3.568.012 43.972 4.585 32.542-3.475-11.016.115-22.145.05-32.983-1.243a9.204 9.204 0 0 1 3.544-5.027Zm39.225-64.39c15.314-4.024 29.933-1.023 31.925 6.558 4.786 17.326-48.206 31.97-55.685 16.687a160.759 160.759 0 0 1 29.481-6.619c10.765-10.155-27.084 1.213-30.466 2.307.63-7.119 11.05-15.333 24.745-18.933Zm-66.312-42.6c42.225-56.717 39.48 27.395 1.84 33.65a121.542 121.542 0 0 1 16.385-24.107c.612-14.601-19.28 19.438-20.749 22.935-6.424-4.21-5.331-18.91 2.524-32.478Zm-65.243 24.108c33.907-64.017 42.987 24.29 5.58 33.136a183.01 183.01 0 0 1 12.548-32.66c-2.708-14.928-15.782 27.639-16.75 31.274-5.928-4.22-6.707-17.972-1.378-31.75Zm-60.5 28.428c24.027-67.041 45.48 15.13 11.537 31.672 1.428-11.022 4.06-22.16 8.94-31.79-3.8-15.239-13.862 27.8-13.401 31.971-7.353-2.134-10.592-16.544-7.075-31.853Zm-38.183 62.616c-16.7-4.403-7.645-58.982 13.164-57.293 17.656 9.46 6.74 50.134-8.482 56.825a140.77 140.77 0 0 1 1.375-13.585c-5.064-10.52-5.627 10.728-5.767 14.086-.095-.019-.195-.01-.29-.033Zm24.625 61.695c14.445-5.838 62.374 27.053 37.634 39.119-14.807 5.211-52.545-21.953-43.252-35.74.78 4.142 31.109 30.64 26.175 16.635-9.395-4.341-16.66-11.283-22.665-19.344a12.204 12.204 0 0 1 2.108-.67Zm81.408 32.977c-13.743-6.54-22.85-17.588-20.692-24.737 9.928 7.943 21.234 14.257 34.147 14.917 2.855.147 2.888-4.314.045-4.459-11.962-.612-22.488-6.666-31.664-14.07 34.202-17.848 85.657 51.425 18.164 28.35Z"/><path fill="#dadbf8" d="M2360.696 1400.652c-34.403-138.353-123-139.05-173.536-266.329-57.234-144.15 168.656-237.037 41.187-432.305-73.31-112.306-293.569-102.518-388.372-65.091-159.487 62.962-184.404 107.027-331.959 123.671-248.198 27.995-397.284-195.704-587.981-135.605-114.742 36.161-167.788 143.545-160.556 241.918 6.539 88.95 31.299 119.475 8.678 219.138-24.362 107.328-92.966 123.428-112.822 208.287-13.787 58.92 19.706 214.542 132.888 347.586l1381.813 5.452c127.222 3.618 220.358-126.87 190.66-246.722Z"/><path fill="#252e51" d="M1739.702 589.53c23.766-152.306-113.971-309.875-245.541-228.473-158.1-47.855-276.37 171.636-163.49 338.673-112.412 311.847 146.039 478.293 330.578 287.106-31.556-150.655 48.057-255.716 78.453-397.306Z"/><path fill="#fff" d="m1663.829 949.02-140.073 214.871-180.093-198.492c36.348-12.074 89.274-25.505 114.242-30.69h132.88c13.74 2.075 50.461 8.88 73.044 14.312Z"/><path fill="#3b3fac" d="M1616.04 939.063c-21.928 111.268-165.37 114.465-192.84 3.728 21.045-5.244 34.705-8.082 34.705-8.082 21.224.845 139.318-2.993 158.134 4.354Z"/><path fill="#3b3fac" d="M1863.778 1449.953h-692.704s-12.386-350.074 23.737-400.653c21.517-29.203 126.428-77.241 184.616-95.638l144.329 210.229 131.921-202.388 8.152-12.482a.09.09 0 0 1 .072.023c63.8 12.11 156.1 63.838 182.37 100.256 36.148 50.58 17.507 400.653 17.507 400.653Z"/><path fill="#f9cbcb" d="M1589.608 939.16c-4.63 71.08-112.084 104.779-131.703-4.45 5.142-25.655 20.806-108.833 25.615-133.121l88.579 1.803.553 4.257Z"/><path fill="#ebb0b0" d="M1589.608 939.16a68.051 68.051 0 0 1-6.855 26.358c-16.601-63.926-21.316-132.17-106.233-126.603l6.975-36.317 88.58 1.804.577 3.247Z"/><path fill="#f9cbcb" d="m1375.042 652.213 22.525 72.928a4.454 4.454 0 0 0-2.277-.138l-.132-.401c-114.384-4.352-122.982-123.762-44.658-109.787 2.922 13.884 15.008 25.702 24.542 37.398ZM1672.416 733.865c-2.753.703-5.416.99-8.59 1.6.381-.93 13.047-65.659 13.65-68.617a221.702 221.702 0 0 0 20.065-40.317c67.91-21.395 84.731 81.308-25.125 107.334ZM1716.729 553.389c-2.96 15.191-6.73 29.507-12.185 42.93.057-3.478.402-33.492.547-36.032 2.518-2.281 5.545-3.755 11.638-6.898Z"/><path fill="#ebb0b0" d="M1356.325 550.882c-.566 7.858-1.462 27.49-1.81 35.574-4.96-14.244-12.28-29.49-10.282-43.535 3.833 1.37 9.985 6.464 12.092 7.961Z"/><path fill="#f9cbcb" d="M1714.214 615.24c-7.643 191.789-223.04 298.267-337.512 107.94-165.943-305.212 316.44-477.677 337.512-107.94Z"/><path fill="#ebb0b0" d="M1533.935 403.934c-3.043-.084-6.02.181-9.034.26 232.565 14.675 216.512 417.788-8.207 420.024 241.487 10.188 269.16-409.397 17.241-420.284Z"/><path fill="#ebb0b0" d="M1350.438 627.946c49.582-49.623 91.839-102.541 95.24-172.932 69.057 143.842 246.746 66.236 250.044 231.262 22.2-22.761 28.197-116.292 19.785-160.294-8.543-44.734-145.932-136.168-169.145-141.753-70.464-4.261-126.233 17.49-178.329 37.266l-30.42 71.512s-10.755 87.277 12.824 134.939Z"/><path fill="#252e51" d="M1344.159 611.937c49.59-49.622 99.41-100.657 102.808-171.044 69.06 143.842 246.756 66.233 250.05 231.262 22.198-22.761 28.195-116.291 19.782-160.293-8.542-44.736-145.932-136.174-169.144-141.754-70.465-4.265-126.233 17.483-178.33 37.266l-30.42 71.512c-4.772.227-36.235 77.66 5.254 133.051Z"/><path fill="#d1d3d4" d="m1647.09 1103.62 31.41 43.868-154.094 132.857-155.393-132.857 35.596-44.927-92.116-77.732 56.351-67.656a746.601 746.601 0 0 1 10.583-3.51l144.329 210.228 131.921-202.388 8.224-12.459q7.216 1.659 14.766 3.536l62.583 72.249Z"/><path fill="#d1d3d4" d="M1517.782 1314.713c-.429-29.369 45.704-29.37 45.272.002.428 29.368-45.705 29.368-45.273-.002Z"/><path fill="#d1d3d4" d="M1517.782 1390.544c-.429-29.369 45.704-29.37 45.272.002.428 29.367-45.705 29.367-45.273-.002Z"/><path fill="#646a6c" d="M1505.048 1314.713c-.428-29.369 45.706-29.37 45.273.002.428 29.368-45.704 29.368-45.273-.002ZM1505.048 1390.544c-.428-29.369 45.706-29.37 45.273.002.428 29.367-45.704 29.367-45.273-.002Z"/><path fill="#898ccd" d="m1724.619 1024.828-60.79-75.807-138.424 212.341-138.425-212.341-60.79 75.807 96.204 77.105-35.411 46.404 139.004 118.84 137.839-118.84-35.41-46.404 96.203-77.105z"/><path fill="#252e51" d="M1320.92 944.015s93.976 138.94 64.298 239.063c0 0 116.43-108.82 72.688-248.363-43.74-139.541-80.452-113.544-80.452-113.544Z"/><path fill="#d1d3d4" d="M1457.907 934.715c-25.082-80.012-47.848-105.59-62.71-112.86 73.37 115.308 59.338 241.708-9.978 361.223 0 0 116.428-108.82 72.688-248.363Z"/><path fill="#fff" d="M1466.833 801.854a13.628 13.628 0 0 0-16.62 9.384c-119.46 33.587-215.65-26.27-187.011-147.075l-15.352-3.798c-34.471 138.597 87.532 202.644 207.68 165.825 17.213 11.897 31.467-18.767 11.303-24.336Z"/><path fill="#ccc" d="M1258.003 662.877c-7.99 37.217-3.309 71.467 12.958 97.784-13.764-26.675-16.715-60.316-7.76-96.498ZM1472.628 805.163c3.048 11.647-11.42 21.345-21.04 14.05-70.42 19.56-156.822 12.81-194.531-50.981 35.15 69.71 125.425 78.47 198.473 57.958 13.29 9.846 29.296-10.197 17.098-21.028Z"/><path fill="#646a6c" d="M1733.206 616.213h-26.358c38.596-336.015-421.476-335.775-382.79 0H1297.7c-39.339-370.655 474.945-370.4 435.506 0Z"/><path fill="#646a6c" d="M1733.206 616.213h-26.358c38.596-336.015-421.476-335.775-382.79 0H1297.7c-39.339-370.655 474.945-370.4 435.506 0Z"/><path fill="#fff" d="M1733.206 616.213h-26.358c38.596-336.015-421.476-335.775-382.79 0H1297.7c-39.339-370.655 474.945-370.4 435.506 0Z"/><g style="mix-blend-mode:multiply"><path fill="#ccc" d="M1508.01 357.972c-138.903 1.057-207.354 125.875-191.393 252.893H1297.7v5.348h26.358v-61.497c-4.539-150.079 179.06-245.416 299.103-158.113a190.378 190.378 0 0 0-115.15-38.631Z"/><path fill="#fff" d="M1638.924 375.487c73.82 50.446 94.327 148.04 86.84 235.378h-18.916v5.348h26.358c7.944-91.728-14.932-190.328-94.282-240.726Z"/></g><path fill="#58595b" d="M1310.88 593.575a23.723 23.723 0 0 1-23.724-23.723c-1.956-17.087 2.785-37.75 23.725-37.773a23.723 23.723 0 0 1 23.721 23.723c1.956 17.086-2.785 37.75-23.723 37.773Z"/><path fill="#ccc" d="M1318.886 533.492c7.911 6.888 6.615 20.83 6.568 30.409.321 16.11-16.743 28.034-31.729 22.307 13.645 15.402 41.616 4.574 40.877-16.357 1.089-13.705-.303-31.788-15.716-36.359Z"/><path fill="#58595b" d="M1718.978 593.575a23.723 23.723 0 0 0 23.723-23.723c1.958-17.087-2.784-37.75-23.724-37.773a23.723 23.723 0 0 0-23.722 23.723c-1.956 17.086 2.785 37.75 23.723 37.773Z"/><path fill="#ccc" d="M1710.973 533.492c-7.912 6.888-6.617 20.83-6.569 30.409-.32 16.11 16.742 28.034 31.728 22.307-13.644 15.402-41.614 4.574-40.875-16.357-1.09-13.705.302-31.788 15.716-36.359Z"/><path fill="#5171c3" d="M1229.632 655.597c-2.777 36.197 25.358 68.092 62.021 67.911V593.575a62.02 62.02 0 0 0-62.021 62.022Z"/><path fill="#ccc" d="M1229.846 650.634c-4.944 37.668 22.946 73.195 61.807 72.874v-15.814a62.016 62.016 0 0 1-61.807-57.06Z"/><path fill="#3b3fac" d="M1307.624 570.31a44.034 44.034 0 0 0-44.035 44.034v97.065a44.035 44.035 0 0 0 88.07 0v-97.065a44.034 44.034 0 0 0-44.035-44.033Z"/><path fill="#ccc" d="M1321.03 572.405c18.828 15.81 7.37 103.909 10.32 125.359.521 29.317-29.79 51.274-57.446 41.94 24.239 31.152 79.192 11.925 77.754-28.298v-97.062a44.041 44.041 0 0 0-30.627-41.939Z"/><path fill="#5171c3" d="M1741.735 591.062v129.934c82.09-.07 82.043-129.878 0-129.934Z"/><path fill="#ccc" d="M1803.54 648.122c4.946 37.666-22.945 73.194-61.805 72.875V705.18a62.012 62.012 0 0 0 61.805-57.059Z"/><path fill="#3b3fac" d="M1725.764 567.797a44.034 44.034 0 0 0-44.034 44.035v97.063a44.035 44.035 0 1 0 88.07 0v-97.063a44.034 44.034 0 0 0-44.036-44.035Z"/><path fill="#ccc" d="M1712.357 569.892c-18.828 15.81-7.37 103.91-10.319 125.358-.52 29.319 29.789 51.276 57.446 41.942-24.238 31.152-79.191 11.923-77.754-28.299v-97.06a44.041 44.041 0 0 1 30.627-41.941Z"/><path fill="#58595b" d="M1459.414 798.094c10.266-37.556 67.434-22.202 57.503 15.441-10.263 37.555-67.433 22.2-57.503-15.44Z"/><path fill="#ccc" d="M1513.102 818.091c-16.737 24.321-57.313 8.205-53.533-20.475-11.13 41.16 53.705 53.296 58.215 10.91a29.594 29.594 0 0 1-4.682 9.565Z"/><path fill="#ccc" d="M1472.301 789.488a1.727 1.727 0 0 1 3.453 0 1.727 1.727 0 0 1-3.453 0Zm8.851-2.915a1.728 1.728 0 0 0 0-3.455 1.728 1.728 0 0 0 0 3.455Zm10.15-.81a1.728 1.728 0 0 0 0-3.455 1.728 1.728 0 0 0 0 3.455Zm7.017 3.13a1.727 1.727 0 0 0 0-3.453 1.727 1.727 0 0 0 0 3.453Zm-1.727 5.778a1.728 1.728 0 0 0 0-3.455 1.728 1.728 0 0 0 0 3.455Zm8.17.618a1.728 1.728 0 0 0 0-3.454 1.728 1.728 0 0 0 0 3.454Zm1.317 7.585a1.727 1.727 0 0 0-.001-3.453 1.727 1.727 0 0 0 0 3.453Zm2.14 7.66a1.728 1.728 0 0 0 0-3.455 1.728 1.728 0 0 0 0 3.455Zm-7.316-1.02a1.728 1.728 0 0 0 0-3.454 1.728 1.728 0 0 0 0 3.455Zm3.86 8.774a1.728 1.728 0 0 0 0-3.455 1.728 1.728 0 0 0 0 3.455Zm-7.803 3.455a1.728 1.728 0 0 0 0-3.455 1.728 1.728 0 0 0 0 3.454Zm-8.16 4.829a1.728 1.728 0 0 0 0-3.455 1.728 1.728 0 0 0 0 3.455Zm-7.648-6.911a1.728 1.728 0 0 0 .001 3.456 1.728 1.728 0 0 0 0-3.456Zm-8.6.354a1.729 1.729 0 0 0 0-3.456 1.729 1.729 0 0 0 0 3.456Zm24.04-18.185a1.728 1.728 0 0 0 0-3.455 1.728 1.728 0 0 0 0 3.455Zm-7.45 4.69a1.728 1.728 0 0 0 0-3.456 1.728 1.728 0 0 0 0 3.456Zm-7.503 3.778a1.728 1.728 0 0 0 0-3.454 1.728 1.728 0 0 0 0 3.454Zm-12.092.236a1.728 1.728 0 0 0 0-3.455 1.728 1.728 0 0 0 0 3.455Zm7.45 4.299a1.728 1.728 0 0 0 0-3.456 1.728 1.728 0 0 0 0 3.456Zm9.77 2.32a1.728 1.728 0 0 0 0-3.453 1.728 1.728 0 0 0 0 3.454Zm8.097-3.831a1.729 1.729 0 0 0 0-3.456 1.729 1.729 0 0 0 0 3.456Zm-4.642-14.577a1.728 1.728 0 0 0 0-3.456 1.728 1.728 0 0 0 0 3.456Zm-2.495-7.53a1.728 1.728 0 0 0 0-3.455 1.728 1.728 0 0 0 0 3.456Zm-9.004 4.588a1.728 1.728 0 0 0 0-3.454 1.728 1.728 0 0 0 0 3.454Zm4.158 6.397a1.728 1.728 0 0 0 0-3.455 1.728 1.728 0 0 0 0 3.455Zm-8.151 3.86a1.728 1.728 0 0 0 0-3.455 1.728 1.728 0 0 0 0 3.455Zm-3.455-7.315a1.728 1.728 0 0 0 0-3.456 1.728 1.728 0 0 0 0 3.456Z"/><path fill="#fff" d="M1123.499 1114.695h792.657a28.675 28.675 0 0 1 28.675 28.675v439.223a28.676 28.676 0 0 1-28.675 28.676h-792.657a28.674 28.674 0 0 1-28.674-28.674V1143.37a28.674 28.674 0 0 1 28.674-28.674Z"/><path fill="#ebebf5" d="M1848.203 1114.695c-23.16 441.372-412.272 442.292-753.378 425.669 1.209 23.935-8.833 70.486 28.676 70.903l792.657.002a28.674 28.674 0 0 0 28.673-28.675V1143.37a28.674 28.674 0 0 0-28.673-28.675Z"/><path fill="#cdcee7" d="M1476.042 1362.983c.982-57.559 86.6-57.55 87.573 0-.983 57.556-86.599 57.548-87.573 0Z"/><path fill="#c7c8ed" d="m2612.76 1661.683-2182.899-4.08a24.188 24.188 0 0 1-24.143-24.233 24.187 24.187 0 0 1 24.232-24.142l2182.9 4.082c31.159.113 31.908 48.287-.09 48.373Z"/><path fill="#fff" d="M2195.084 1307.14c-46.38 37.345 24.382 80.273-20.141 116.65 14.134-22.972.182-45.19-6.323-67.42-5.214-19.987 4.693-45.098 26.464-49.23ZM2044.506 1308.16c16.537 48.202 82.926 50.118 46.45 114.61 15.181-66.782-47.979-58.433-46.45-114.61ZM2125.029 1287.16c26.615 19.962 46.883-22.268 27.385-40.511-13.6-11.156-36.413-6.916-47.435 6.113-14.884 17.12-6.655 41.606 5.78 58.414 18.277 29.868 44.91 73.087 20.807 106.321 21.689-48.4-31.192-86.732-45.048-128.822-14.155-41.016 40.346-78.584 72.386-48.453 23.364 22.549-4.848 74.631-33.875 46.938ZM2210.847 1477.466c-76.198 26.761-46.761 114.947 30.23 90.582 76.195-26.76 46.758-114.945-30.23-90.582Zm26.74 80.13c-59.23 18.785-81.886-49.136-23.25-69.68 59.228-18.78 81.884 49.142 23.25 69.68Z"/><path fill="#fff" d="M2042.396 1450.87c-24.445-.068-18.29 31.566-18.886 47.22a108.532 108.532 0 0 0 54.993 94.435h107.212c43.51-22.629 59.843-74.632 54.99-122.768a18.878 18.878 0 0 0-18.881-18.886Z"/><path fill="#fff" d="M2205.298 1609.574H2058.92a18.888 18.888 0 0 1 18.888-18.888h108.601a18.888 18.888 0 0 1 18.889 18.888Z"/><path fill="#ebebf5" d="M2240.712 1469.744c4.823 48.17-11.471 100.129-55.025 122.786-.5-.396-107.343.594-107.652-.257 60.678-14.728 149.711-51.753 130.868-141.408 13.917-1.407 31.774 1.244 31.81 18.879Z"/><path fill="#fff" d="M962.373 1562.723v41.45H841.888a20.725 20.725 0 1 1 0-41.45Z"/><path fill="#3b3fac" d="M841.888 1562.723c-18.087 0-30.843 23.288-9.855 41.45h130.34v8.188H612.79v-57.826h349.583v8.188Z"/><path fill="#3b3fac" d="M821.156 1583.455a20.743 20.743 0 0 0 20.732 20.718h120.485v8.188H841.888a28.913 28.913 0 1 1 0-57.826h120.485v8.188H841.888a20.757 20.757 0 0 0-20.732 20.732Z"/><path fill="#fff" d="M734.922 1554.535h7.758v57.826h-7.758zM715.525 1554.535h7.758v57.826h-7.758z"/><path fill="#3b3fac" d="M849.733 1577.554v17.996l9.154-6.361 9.154 6.361v-17.996h-18.308z"/><path fill="#fff" d="M759.496 1586.553c-.319-21.804 33.928-21.804 33.607.002.32 21.8-33.93 21.8-33.607-.002ZM645.886 1504.895v41.45h120.485a20.725 20.725 0 1 0 0-41.45Z"/><path fill="#7c7fd6" d="M766.371 1504.895c18.087 0 30.844 23.29 9.855 41.45h-130.34v8.19h349.582v-57.828H645.886v8.188Z"/><path fill="#7c7fd6" d="M787.104 1525.63a20.745 20.745 0 0 1-20.733 20.715H645.886v8.19h120.485a28.914 28.914 0 1 0 0-57.828H645.886v8.188h120.485a20.759 20.759 0 0 1 20.733 20.734Z"/><path fill="#fff" d="M865.579 1496.707h7.756v57.828h-7.756zM884.975 1496.707h7.758v57.828h-7.758z"/><path fill="#7c7fd6" d="M758.526 1519.726v17.999l-9.153-6.362-9.156 6.362v-17.999h18.309z"/><path fill="#fff" d="M815.048 1525.621c-.3-20.583 32.032-20.585 31.73.001.3 20.582-32.034 20.582-31.73 0Z"/><path fill="#dadbf8" d="M437.135 1136.66a10.432 10.432 0 1 1 14.707 1.171 10.432 10.432 0 0 1-14.707-1.171Z"/><path fill="#dadbf8" d="M456.67 1106.302a3.258 3.258 0 0 1-3.206.593c-.468-.16-11.968-3.939-23.192 5.629-11.329 9.658-10.174 21.652-10.12 22.157a3.26 3.26 0 0 1-6.475.75c-.077-.642-1.703-15.878 12.365-27.869 14.168-12.077 28.974-7.033 29.597-6.813a3.261 3.261 0 0 1 1.03 5.553Z"/><path fill="#dadbf8" d="M456.29 1086.76a3.26 3.26 0 0 1-3.205.594c-.752-.26-18.884-6.292-36.566 8.782-17.787 15.161-15.904 34.024-15.816 34.82a3.26 3.26 0 0 1-6.476.756c-.11-.932-2.469-23.038 18.061-40.539 20.63-17.585 42.07-10.285 42.972-9.965a3.26 3.26 0 0 1 1.03 5.553Z"/><path fill="#dadbf8" d="M453.74 1069.698a3.262 3.262 0 0 1-3.206.594c-.96-.336-23.976-8.028-46.422 11.104-22.546 19.22-20.125 43.143-20.012 44.153a3.26 3.26 0 0 1-6.475.758c-.135-1.146-3.033-28.315 22.258-49.873 25.394-21.646 51.72-12.682 52.828-12.29a3.26 3.26 0 0 1 1.03 5.554Z"/><path fill="#dadbf8" d="M453.603 1051.445a3.26 3.26 0 0 1-3.205.594c-1.226-.428-30.525-10.26-59.092 14.092-28.666 24.435-25.444 55.837-25.409 56.152a3.26 3.26 0 0 1-6.474.76c-.169-1.42-3.759-35.097 27.654-61.874 31.514-26.864 64.124-15.762 65.496-15.276a3.26 3.26 0 0 1 1.03 5.552ZM1009.71 421.832a49.04 49.04 0 0 0-41.78 74.71c-6.252 4.634-8.721 15.053-10.907 25.903a65.183 65.183 0 0 1 30.95-7.619 49.038 49.038 0 1 0 21.737-92.994Z"/><path fill="#dadbf8" d="M1109.611 489.931c-10.418-6.692-20.782-11.214-30.949-7.62a48.715 48.715 0 0 1-16.09 4.757 55.306 55.306 0 0 0-49.153-71.361 49.042 49.042 0 1 1 85.286 48.32c7.363 4.384 9.96 14.203 10.906 25.904Z"/><path fill="#fff" d="M984.22 470.167a5.452 5.452 0 1 1 5.453 5.452 5.453 5.453 0 0 1-5.453-5.452ZM1002.433 470.167a5.452 5.452 0 1 1 5.453 5.452 5.452 5.452 0 0 1-5.453-5.452ZM1020.646 470.167a5.452 5.452 0 1 1 5.453 5.452 5.453 5.453 0 0 1-5.452-5.452Z"/><path fill="#dadbf8" d="M751.258 634.624c-1.463 1.996-51.616 41.636-50.041 43.761 4.687 8.02 18.021 5.269 26.353 1.955 29.065-13.408 41.27-52.87 13.313-74.604-14.404-12.544-33.78-16.621-51.56-8.836-59.468 27.6-48.194 102.547 18.358 106.683l11.963 10.357c-61.479 10.032-107.227-57.576-63.093-106.95 15.248-18.002 39.122-28.704 61.712-24.935 23.858 3.643 49.383 27.769 49.934 52.519 2.255 22.489-15.118 47.577-36.438 56.293-14.068 7.326-52.93 4.03-44.869-18.454-28.098 3.367-36.255-27.885-17.334-46.72 16.572-22.377 67.024-35.701 63.564 4.764l6.759-5.684Zm-71.92 4.534c-9.427 9.016-8.521 25.125 6.35 23.797 11.711-2.471 36.982-20.68 38.361-33.929-1.368-15.759-18.96-12.003-29.25-3.656a89.5 89.5 0 0 0-15.462 13.788ZM2419.428 1001.167l-27.595-22.704 2.27-2.76q5.796-7.044 11.008-10.123a32.79 32.79 0 0 1 11.359-4.11q6.147-1.032 24.714-1.102 9.824.048 13.11-3.946 3.289-3.994 2.748-8.151-.535-4.157-5.33-8.1a14.884 14.884 0 0 0-11.34-3.607q-6.184.634-14.12 8.353l-25.31-26.666q14.241-14.348 31.877-15.727 17.637-1.382 37.97 15.348 15.832 13.025 20.126 27.64 5.868 19.807-6.381 34.694a29.78 29.78 0 0 1-13.211 9.102q-8.135 2.928-25.476 2.543-12.114-.226-16.937 1.713-4.822 1.938-9.481 7.603Zm-34.575-16.147 29.557 24.318-21.45 26.07-29.557-24.317ZM2319.693 571.813l-28.214-55.247a13.575 13.575 0 0 1 6.095 1.744l79.351 44.744a13.562 13.562 0 0 1 4.646 4.312Z"/><path fill="#dadbf8" d="m2382.108 581.635-25.128 44.561a13.637 13.637 0 0 1-18.58 5.185l-79.354-44.744a13.636 13.636 0 0 1-5.177-18.584l25.124-44.561a13.56 13.56 0 0 1 6.528-5.842l30.756 60.223 67.452-4.848a13.553 13.553 0 0 1-1.621 8.61ZM1997.817 455.294c-8.659-7.985-18.28-6.385-26.06-.373-4.349 3.36-9.958 2.41-14.603-.525-12.396-7.839-23.94-16.63-31.88-30.676-2.725-4.824-4.326-10.223-1.058-14.696 14.189-19.423-8.825-42.6-28.175-25.79l-10.617 10.919c-7.664 6.76-12.3 14.464-6.3 24.998 17.533 30.787 44.23 57.55 82.05 79.89 15.312 9.044 24.977-4.42 33.946-13.653l-.01-.008c9.393-7.447 11.811-21.394 2.707-30.086Z"/></g></svg>